<svg width="66" height="120" viewBox="0 0 66 120" fill="none" xmlns="http://www.w3.org/2000/svg">
<path d="M1.36011 63.2727L33.3403 50.9507L65.3206 63.2727L33.3403 75.5947L1.36011 63.2727Z" fill="url(#paint0_linear_713_20)"/>
<path d="M5.06494 61.8058C13.45 65.033 33.4376 72.6609 33.4376 72.6609L61.8103 61.8058C56.0578 59.6543 33.4376 50.9507 33.4376 50.9507L5.06494 61.8058Z" fill="#3AFDA3"/>
<path d="M65.3206 63.2725L33.3403 119.895L1.36011 63.2725L33.3403 75.5945L65.3206 63.2725Z" fill="url(#paint1_linear_713_20)"/>
<path d="M65.9057 57.6005L33.3405 70.1181L0.872803 57.6005L33.3405 0L65.9057 57.6005Z" fill="url(#paint2_linear_713_20)"/>
<path d="M33.3401 75.5945L65.3203 63.2725L33.3401 119.895V75.5945Z" fill="#013217"/>
<path d="M65.9053 57.6005L33.3401 70.1181V0L65.9053 57.6005Z" fill="#013217"/>
<defs>
<linearGradient id="paint0_linear_713_20" x1="1.69392" y1="39.9596" x2="5.94681" y2="91.07" gradientUnits="userSpaceOnUse">
<stop stop-color="#00D856"/>
<stop offset="0.817729" stop-color="#001B0C"/>
</linearGradient>
<linearGradient id="paint1_linear_713_20" x1="1.69392" y1="38.0192" x2="23.5034" y2="152.095" gradientUnits="userSpaceOnUse">
<stop offset="0.242894" stop-color="#3AFDA3"/>
<stop offset="0.797379" stop-color="#001B0C"/>
</linearGradient>
<linearGradient id="paint2_linear_713_20" x1="1.21221" y1="-31.2722" x2="33.5541" y2="107.625" gradientUnits="userSpaceOnUse">
<stop offset="0.242894" stop-color="#3AFDA3"/>
<stop offset="0.797379" stop-color="#001B0C"/>
</linearGradient>
</defs>
</svg>
