<svg width="345" height="711" viewBox="0 0 345 711" fill="none" xmlns="http://www.w3.org/2000/svg">
<g filter="url(#filter0_f_719_972)">
<path d="M180 461C118.205 461 58.9401 486.18 15.2441 531.001C-28.4519 575.823 -53 636.613 -53 700C-53 763.387 -28.4519 824.177 15.2441 868.999C58.9401 913.82 118.205 939 180 939C241.795 939 301.06 913.82 344.756 868.999C388.452 824.177 413 763.387 413 700C413 636.613 388.452 575.823 344.756 531.001C301.06 486.18 241.795 461 180 461ZM309.343 713.757C306.476 717.626 302.503 720.479 297.978 721.918L261.379 734.509C250.196 738.43 240.018 744.885 231.601 753.396C223.24 761.978 216.937 772.435 213.188 783.941L200.686 821.482C199.004 825.715 196.259 829.416 192.73 832.208C188.956 835.012 184.432 836.559 179.773 836.638C175.089 836.709 170.521 835.147 166.816 832.208C163.035 829.424 160.179 825.518 158.632 821.016L146.584 783.475C142.84 771.928 136.51 761.442 128.101 752.858C119.693 744.273 109.44 737.829 98.1658 734.043L61.7951 721.685C57.4062 720.098 53.5976 717.168 50.8839 713.291C48.0503 709.473 46.5313 704.798 46.5649 700C46.5955 695.141 48.1055 690.412 50.8839 686.476C53.4946 682.696 57.2511 679.909 61.5678 678.548L98.1658 665.957C109.479 662.027 119.804 655.577 128.399 647.07C136.81 638.35 143.106 627.717 146.812 616.059L159.087 579.218C160.449 574.806 163.06 570.91 166.588 568.025C170.214 564.885 174.8 563.152 179.545 563.129C184.055 563.049 188.487 564.348 192.275 566.86C196.275 569.41 199.319 573.272 200.913 577.819L213.188 615.825C217.007 627.554 223.372 638.233 231.828 647.07C240.371 655.53 250.612 661.976 261.834 665.957L298.432 679.015C302.781 680.436 306.542 683.309 309.116 687.176C311.769 691.074 313.197 695.712 313.208 700.466C313.185 705.176 311.844 709.793 309.343 713.757Z" fill="#00D856"/>
</g>
<defs>
<filter id="filter0_f_719_972" x="-677" y="-163" width="1714" height="1726" filterUnits="userSpaceOnUse" color-interpolation-filters="sRGB">
<feFlood flood-opacity="0" result="BackgroundImageFix"/>
<feBlend mode="normal" in="SourceGraphic" in2="BackgroundImageFix" result="shape"/>
<feGaussianBlur stdDeviation="312" result="effect1_foregroundBlur_719_972"/>
</filter>
</defs>
</svg>
