<svg width="575" height="507" viewBox="0 0 575 507" fill="none" xmlns="http://www.w3.org/2000/svg">
    <path opacity="0.6" d="M250.68 326.484L199.155 304.284C195.509 302.748 195.985 299.914 200.107 298.143L249.57 276.888C253.851 275.116 260.192 274.88 263.839 276.415L315.522 298.615C319.168 300.151 318.692 302.985 314.57 304.756L265.107 326.011C260.668 327.901 254.326 328.019 250.68 326.484Z" fill="#0C0F38"/>
    <path d="M256.863 333.144C254.009 333.144 251.314 332.671 249.253 331.845L188.375 305.748C186.314 304.803 185.204 303.622 185.204 302.205C185.204 300.552 186.789 298.899 189.643 297.718L247.985 272.684C253.058 270.44 260.985 270.204 265.424 272.212L326.144 298.308C328.205 299.253 329.314 300.434 329.314 301.851C329.314 303.504 327.729 305.157 324.875 306.338L266.692 331.372C263.838 332.553 260.192 333.144 256.863 333.144ZM249.729 331.018C253.851 332.789 261.143 332.553 265.899 330.546L324.241 305.512C326.619 304.449 328.046 303.15 328.046 301.851C328.046 300.788 327.095 299.844 325.509 299.135L264.79 272.92C260.668 271.149 253.375 271.385 248.619 273.392L190.277 298.426C187.899 299.489 186.472 300.788 186.472 302.087C186.472 303.15 187.423 304.095 189.009 304.803L249.729 331.018Z" stroke="url(#paint1_linear_673_1320)" stroke-miterlimit="10"/>
    <path d="M318.058 278.895H292.375L263.997 266.732C260.351 265.197 253.851 265.315 249.729 267.204L222.302 279.013H196.619V291.766C196.46 292.829 197.253 293.892 198.997 294.6L250.521 316.8C254.168 318.335 260.668 318.217 264.79 316.328L314.253 295.073C316.473 294.128 317.583 292.947 317.741 291.766V278.895H318.058Z" fill="url(#paint2_linear_673_1320)"/>
    <path d="M314.412 294.128L264.948 315.383C260.668 317.154 254.326 317.39 250.68 315.855L199.155 293.655C197.859 293.129 197.088 292.406 196.843 291.634C196.82 291.562 196.777 291.568 196.777 291.643V291.643C196.777 291.646 196.777 291.649 196.776 291.652C196.621 292.714 197.414 293.774 199.155 294.482L250.68 316.682C254.326 318.217 260.826 318.099 264.948 316.21L314.412 294.954C316.631 294.01 317.741 292.829 317.9 291.648V290.821C317.9 292.002 316.631 293.183 314.412 294.128Z" stroke="url(#paint3_linear_673_1320)" stroke-miterlimit="10"/>
    <g>
        <path d="M198.204 292.593V279.84H223.728L251.155 268.031C255.436 266.26 261.777 266.024 265.424 267.559L293.961 279.84H317.9V279.013H292.375L263.997 266.732C260.351 265.197 253.851 265.315 249.729 267.204L222.302 279.013H196.619V291.766C196.46 292.829 197.253 293.892 198.997 294.6L199.314 294.718C198.521 294.128 198.204 293.419 198.204 292.593Z" fill="url(#paint4_radial_673_1320)"/>
    </g>
    <g>
        <path d="M316.473 279.958V292.711C316.473 293.419 315.997 294.01 315.205 294.718C316.948 293.892 317.741 292.829 317.9 291.766V279.131C317.424 279.367 316.948 279.603 316.473 279.958Z" fill="url(#paint5_radial_673_1320)"/>
    </g>
    <g>
        <path d="M315.802 275.95L263.591 253.697C261.663 252.868 258.932 252.513 256.201 252.631C258.129 252.75 260.057 253.105 261.503 253.697L313.714 275.95C317.408 277.489 316.927 280.33 312.75 282.105L262.467 303.53C260.378 304.358 257.808 304.95 255.237 305.069C258.45 305.187 261.824 304.713 264.394 303.53L314.517 282.223C319.015 280.33 319.497 277.607 315.802 275.95Z" fill="url(#paint7_radial_673_1320)"/>
    </g>
    <path d="M252.424 297.552L214.058 281.02C211.363 279.839 211.68 277.832 214.85 276.415L251.79 260.592C254.96 259.293 259.716 259.056 262.412 260.237L300.778 276.769C303.473 277.95 303.156 279.958 299.985 281.375L263.046 297.316C259.875 298.615 255.119 298.733 252.424 297.552Z" fill="url(#paint8_linear_673_1320)"/>
    <path d="M253.692 292.474L225.948 280.548C224.046 279.721 224.204 278.186 226.424 277.241L253.058 265.787C255.277 264.843 258.765 264.724 260.826 265.551L288.729 277.36C290.631 278.186 290.473 279.721 288.253 280.666L261.619 292.12C259.082 293.183 255.753 293.301 253.692 292.474Z" fill="url(#paint9_radial_673_1320)"/>
    <g>
        <path d="M252.899 303.929L201.375 281.847C197.728 280.312 198.204 277.478 202.326 275.706L251.79 254.451C253.851 253.624 256.229 253.034 258.765 253.034C255.595 252.916 252.107 253.388 249.412 254.451L199.948 275.706C195.667 277.478 195.192 280.312 198.997 281.847L250.521 304.047C252.424 304.873 255.119 305.228 257.814 305.11C256.07 304.873 254.326 304.519 252.899 303.929Z" fill="url(#paint10_radial_673_1320)"/>
    </g>
    <path opacity="0.4" d="M184.435 203.215L187.567 208.098L235.022 283.794C235.022 284.187 235.338 284.501 235.864 284.737L254.282 292.67C255.545 293.22 257.86 293.141 259.439 292.513L277.12 284.894C277.857 284.58 278.278 284.109 278.383 283.716L319.11 203.215H184.435Z" fill="url(#paint11_linear_673_1320)"/>
    <defs>
        <linearGradient id="paint1_linear_673_1320" x1="257.718" y1="242.341" x2="273.284" y2="340.795" gradientUnits="userSpaceOnUse">
            <stop offset="0.303689" stop-color="#004DF4" stop-opacity="0"/>
            <stop offset="0.422945" stop-color="#004DF4" stop-opacity="0.4"/>
            <stop offset="0.499089" stop-color="#004DF4"/>
            <stop offset="0.649516" stop-color="#26DDFF"/>
            <stop offset="0.953267" stop-color="#26DDFF" stop-opacity="0"/>
        </linearGradient>
        <linearGradient id="paint2_linear_673_1320" x1="185.14" y1="291.74" x2="344.953" y2="267.159" gradientUnits="userSpaceOnUse">
            <stop offset="0.232734" stop-color="#0A205F"/>
            <stop offset="0.644324" stop-color="#3168DA"/>
        </linearGradient>
        <linearGradient id="paint3_linear_673_1320" x1="257.714" y1="278.507" x2="261.234" y2="321.823" gradientUnits="userSpaceOnUse">
            <stop offset="0.303689" stop-color="#004DF4" stop-opacity="0"/>
            <stop offset="0.422945" stop-color="#004DF4" stop-opacity="0.4"/>
            <stop offset="0.499089" stop-color="#004DF4"/>
            <stop offset="0.649516" stop-color="#26DDFF"/>
            <stop offset="0.953267" stop-color="#26DDFF" stop-opacity="0"/>
        </linearGradient>
        <radialGradient id="paint4_radial_673_1320" cx="0" cy="0" r="1" gradientTransform="matrix(239.451 28.1008 -637.996 19.5284 265.914 280.385)" gradientUnits="userSpaceOnUse">
            <stop stop-color="#00C3FD"/>
            <stop offset="0.381991" stop-color="#0194FE"/>
            <stop offset="1" stop-color="#0194FE"/>
        </radialGradient>
        <radialGradient id="paint5_radial_673_1320" cx="0" cy="0" r="1" gradientTransform="matrix(5.3203 15.0812 -14.1755 10.4805 316.745 287.026)" gradientUnits="userSpaceOnUse">
            <stop stop-color="#00C3FD"/>
            <stop offset="0.381991" stop-color="#0194FE"/>
            <stop offset="1" stop-color="#0194FE"/>
        </radialGradient>
        <radialGradient id="paint7_radial_673_1320" cx="0" cy="0" r="1" gradientTransform="matrix(124.423 50.7733 -331.514 35.2844 291.255 279.188)" gradientUnits="userSpaceOnUse">
            <stop stop-color="#00C3FD"/>
            <stop offset="0.381991" stop-color="#0194FE"/>
            <stop offset="1" stop-color="#0194FE"/>
        </radialGradient>
        <linearGradient id="paint8_linear_673_1320" x1="203.709" y1="278.901" x2="322.621" y2="260.645" gradientUnits="userSpaceOnUse">
            <stop offset="0.232734" stop-color="#0A205F"/>
            <stop offset="0.644324" stop-color="#3168DA"/>
        </linearGradient>
        <radialGradient id="paint9_radial_673_1320" cx="0" cy="0" r="1" gradientTransform="matrix(-7.21921 -39.5237 -56.4957 10.4613 250.311 304.722)" gradientUnits="userSpaceOnUse">
            <stop offset="0.329113" stop-color="#04495F"/>
            <stop offset="0.723628" stop-color="#45CB9C"/>
            <stop offset="0.913706" stop-color="#3DEFA1"/>
            <stop offset="1" stop-color="#3AFDA3"/>
        </radialGradient>
        <radialGradient id="paint10_radial_673_1320" cx="0" cy="0" r="1" gradientTransform="matrix(123.078 50.4234 -327.929 35.0412 232.044 279.412)" gradientUnits="userSpaceOnUse">
            <stop stop-color="#00C3FD"/>
            <stop offset="0.381991" stop-color="#0194FE"/>
            <stop offset="1" stop-color="#0194FE"/>
        </radialGradient>
        <linearGradient id="paint11_linear_673_1320" x1="256.783" y1="316.678" x2="259.782" y2="168.888" gradientUnits="userSpaceOnUse">
            <stop stop-color="#2CBA92"/>
            <stop offset="0.852811" stop-color="#13113D" stop-opacity="0"/>
        </linearGradient>
    </defs>
</svg>