<svg width="676" height="20" viewBox="0 0 676 20" fill="none" xmlns="http://www.w3.org/2000/svg">
<path d="M675.984 1.00956C652.776 2.19536 629.567 3.33831 606.374 4.58126C567.065 6.68141 527.756 8.83876 488.446 10.9675C448.952 13.1105 409.441 15.2678 369.947 17.3822C351.451 18.368 332.94 19.8824 314.428 19.9967C299.316 20.0824 284.205 18.4966 269.093 17.5537C222.815 14.6535 176.552 11.6104 130.274 8.79587C97.5934 6.81001 64.8975 5.13845 32.217 3.2526C21.478 2.63826 10.739 1.80961 0 0.466655C15.1118 0.466655 30.2082 0.466655 45.3201 0.466655C80.5038 0.495229 115.687 0.552373 150.871 0.552373C165.226 0.552373 179.611 -0.00475617 193.935 0.609576C202.743 0.981032 211.473 0.266665 220.25 0.580974C229.706 0.923857 239.178 0.566659 248.65 0.552373C258.107 0.552373 267.578 0.523809 277.035 0.65239C278.796 0.680964 280.527 1.46674 282.613 1.99535C285.24 -2.07638 290.633 1.48104 294.944 0.666691C295.886 0.480963 297.292 2.3668 297.941 2.88113C299.239 2.28108 301.047 0.680992 302.87 0.680992C341.484 0.580984 380.098 0.652418 418.712 0.680992C425.109 0.680992 431.506 0.680992 438.073 0.680992C438.336 2.56685 438.552 4.08124 438.908 6.56714C439.943 4.13839 440.638 2.50971 441.535 0.42384C449.971 0.42384 458.47 0.609499 466.968 0.352337C472.361 0.195182 476.023 1.16671 475.482 7.25288C475.745 5.58132 475.42 3.42406 476.44 2.38112C477.568 1.22389 479.886 0.852423 481.756 0.580974C483.78 0.295238 485.897 0.509558 488.508 0.509558C489.049 2.49542 489.574 4.45265 490.424 7.59575C490.563 1.95247 490.486 -0.819169 497.686 1.88103C502.94 3.85261 510.187 0.766681 516.553 0.738108C568.765 0.55238 620.992 0.552418 673.203 0.509558C674.13 0.509558 675.057 0.595229 676 0.63809C676 0.766671 676 0.880979 676 1.00956H675.984Z" fill="url(#paint0_linear_679_294)"/>
<defs>
<linearGradient id="paint0_linear_679_294" x1="338" y1="0" x2="338" y2="20" gradientUnits="userSpaceOnUse">
<stop stop-color="#001B0C"/>
<stop offset="1" stop-color="#0CE46C"/>
</linearGradient>
</defs>
</svg>
