<svg width="73" height="73" viewBox="0 0 73 73" fill="none" xmlns="http://www.w3.org/2000/svg">
    <g>
        <path d="M40.0412 16.8157C39.8771 16.8157 39.7435 16.9443 39.7435 17.1024C39.7435 17.2605 39.8771 17.3892 40.0412 17.3892C40.2054 17.3892 40.339 17.2605 40.339 17.1024C40.339 16.9443 40.2054 16.8157 40.0412 16.8157Z" fill="url(#paint0_linear_673_1372)"/>
        <path d="M36.4719 17.9937C35.0144 17.9937 33.8286 19.1341 33.8286 20.5358C33.8286 21.9376 35.0144 23.078 36.4719 23.078C37.9294 23.078 39.1151 21.9376 39.1151 20.5359C39.1151 19.1341 37.9294 17.9937 36.4719 17.9937Z" fill="url(#paint1_linear_673_1372)"/>
        <path d="M39.2457 14.6296H33.698C31.8416 14.6296 30.3313 16.0822 30.3313 17.8677V23.2033C30.3313 24.9888 31.8416 26.4413 33.698 26.4413H39.2457C41.1021 26.4413 42.6124 24.9888 42.6124 23.2033V17.8677C42.6124 16.0822 41.1021 14.6296 39.2457 14.6296ZM36.4718 23.7752C34.6144 23.7752 33.1034 22.3219 33.1034 20.5355C33.1034 18.7491 34.6145 17.2958 36.4718 17.2958C38.3292 17.2958 39.8403 18.7491 39.8403 20.5355C39.8403 22.3219 38.3292 23.7752 36.4718 23.7752ZM40.0418 18.0863C39.4775 18.0863 39.0184 17.6448 39.0184 17.102C39.0184 16.5593 39.4775 16.1177 40.0418 16.1177C40.6061 16.1177 41.0652 16.5593 41.0652 17.102C41.0652 17.6447 40.6061 18.0863 40.0418 18.0863Z" fill="url(#paint2_linear_673_1372)"/>
    </g>
    <defs>
        <linearGradient id="paint0_linear_673_1372" x1="39.9506" y1="17.3526" x2="40.2305" y2="17.2222" gradientUnits="userSpaceOnUse">
            <stop offset="1" stop-color="#00D856"/>
        </linearGradient>
        <linearGradient id="paint1_linear_673_1372" x1="35.6668" y1="22.7535" x2="38.1512" y2="21.595" gradientUnits="userSpaceOnUse">
            <stop offset="1" stop-color="#00D856"/>
        </linearGradient>
        <linearGradient id="paint2_linear_673_1372" x1="34.6014" y1="25.6874" x2="40.3732" y2="22.9959" gradientUnits="userSpaceOnUse">
            <stop offset="1" stop-color="#00D856"/>
        </linearGradient>
    </defs>
</svg>