<svg width="21" height="36" viewBox="0 0 21 36" fill="none" xmlns="http://www.w3.org/2000/svg">
<path d="M1.06299 19.0202L10.6167 15.3391L20.1704 19.0202L10.6167 22.7012L1.06299 19.0202Z" fill="url(#paint0_linear_732_4333)"/>
<path d="M2.16992 18.5819C4.67486 19.546 10.6459 21.8248 10.6459 21.8248L19.1219 18.5819C17.4034 17.9392 10.6459 15.3391 10.6459 15.3391L2.16992 18.5819Z" fill="#3AFDA3"/>
<path d="M20.1704 19.0195L10.6167 35.9349L1.06299 19.0195L10.6167 22.7006L20.1704 19.0195Z" fill="url(#paint1_linear_732_4333)"/>
<path d="M20.3453 17.3256L10.6168 21.0651L0.91748 17.3256L10.6168 0.118164L20.3453 17.3256Z" fill="url(#paint2_linear_732_4333)"/>
<path d="M10.6167 22.7006L20.1704 19.0195L10.6167 35.9349V22.7006Z" fill="#013217"/>
<path d="M20.3452 17.3256L10.6167 21.0651V0.118164L20.3452 17.3256Z" fill="#013217"/>
<defs>
<linearGradient id="paint0_linear_732_4333" x1="1.16271" y1="12.0557" x2="2.43321" y2="27.3243" gradientUnits="userSpaceOnUse">
<stop stop-color="#00D856"/>
<stop offset="0.817729" stop-color="#001B0C"/>
</linearGradient>
<linearGradient id="paint1_linear_732_4333" x1="1.16271" y1="11.4754" x2="7.67804" y2="45.5541" gradientUnits="userSpaceOnUse">
<stop offset="0.242894" stop-color="#3AFDA3"/>
<stop offset="0.797379" stop-color="#001B0C"/>
</linearGradient>
<linearGradient id="paint2_linear_732_4333" x1="1.01887" y1="-9.22403" x2="10.6806" y2="32.2699" gradientUnits="userSpaceOnUse">
<stop offset="0.242894" stop-color="#3AFDA3"/>
<stop offset="0.797379" stop-color="#001B0C"/>
</linearGradient>
</defs>
</svg>
