<svg width="67" height="65" viewBox="0 0 67 65" fill="none" xmlns="http://www.w3.org/2000/svg">
<path d="M2.6346 30.2346L23.5532 22.8544L31.1627 2.5843C31.3371 2.11995 31.6547 1.71886 32.0724 1.43544C32.4901 1.15202 32.9876 1 33.4975 1C34.0074 1 34.5049 1.15202 34.9226 1.43544C35.3403 1.71886 35.6579 2.11995 35.8323 2.5843L43.4468 22.8592L64.3654 30.2346C64.8445 30.4037 65.2583 30.7115 65.5507 31.1164C65.8432 31.5212 66 32.0034 66 32.4976C66 32.9918 65.8432 33.474 65.5507 33.8788C65.2583 34.2836 64.8445 34.5915 64.3654 34.7606L43.4418 42.1408L35.8323 62.4157C35.6579 62.8801 35.3403 63.2811 34.9226 63.5646C34.5049 63.848 34.0074 64 33.4975 64C32.9876 64 32.4901 63.848 32.0724 63.5646C31.6547 63.2811 31.3371 62.8801 31.1627 62.4157L23.5482 42.1359L2.6346 34.7606C2.1555 34.5915 1.74168 34.2836 1.44926 33.8788C1.15685 33.474 1 32.9918 1 32.4976C1 32.0034 1.15685 31.5212 1.44926 31.1164C1.74168 30.7115 2.1555 30.4037 2.6346 30.2346Z" stroke="white" stroke-opacity="0.21" stroke-width="1.59174" stroke-linecap="round" stroke-linejoin="round"/>
</svg>
