<svg width="119" height="47" viewBox="0 0 119 47" fill="none" xmlns="http://www.w3.org/2000/svg">
<path d="M2.08923 0C1.56847 0 1.05475 0.187965 0.660658 0.5639C-0.127521 1.31577 -0.127521 2.54427 0.660658 3.29613L21.7937 23.4556L0.646591 43.6286C-0.127513 44.367 -0.240111 45.5821 0.491769 46.3608C1.27291 47.1865 2.61703 47.2134 3.43336 46.4347L25.6431 25.2481C26.6846 24.2545 26.6846 22.6434 25.6431 21.6565L3.53189 0.5639C3.1378 0.187965 2.61704 0 2.10332 0H2.08923Z" fill="#9CEBDB"/>
<path d="M13.6586 0C13.1378 0 12.6241 0.187965 12.23 0.5639C11.4418 1.31577 11.4418 2.54427 12.23 3.29613L33.363 23.4556L12.2159 43.6286C11.4418 44.367 11.3292 45.5821 12.0611 46.3608C12.8422 47.1865 14.1864 47.2134 15.0027 46.4347L37.2124 25.2481C38.254 24.2545 38.254 22.6434 37.2124 21.6565L15.1012 0.5639C14.7071 0.187965 14.1864 0 13.6727 0H13.6586Z" fill="#9CEBDB"/>
<path d="M25.235 0C24.7142 0 24.2005 0.187965 23.8064 0.5639C23.0182 1.31577 23.0182 2.54427 23.8064 3.29613L44.9395 23.4556L23.7923 43.6286C23.0182 44.367 22.9056 45.5821 23.6375 46.3608C24.4187 47.1865 25.7628 47.2134 26.5791 46.4347L48.7888 25.2481C49.8304 24.2545 49.8304 22.6434 48.7888 21.6565L26.6776 0.5639C26.2835 0.187965 25.7628 0 25.2491 0H25.235Z" fill="#9CEBDB"/>
<path d="M36.8043 0C36.2836 0 35.7698 0.187965 35.3757 0.5639C34.5876 1.31577 34.5876 2.54427 35.3757 3.29613L56.5088 23.4556L35.3617 43.6286C34.5876 44.367 34.475 45.5821 35.2069 46.3608C35.988 47.1865 37.3321 47.2134 38.1484 46.4347L60.3582 25.2481C61.3997 24.2545 61.3997 22.6434 60.3582 21.6565L38.247 0.5639C37.8529 0.187965 37.3321 0 36.8184 0H36.8043Z" fill="#9CEBDB"/>
<path d="M48.3805 0C47.8597 0 47.346 0.187965 46.9519 0.5639C46.1637 1.31577 46.1637 2.54427 46.9519 3.29613L68.085 23.4556L46.9379 43.6286C46.1638 44.367 46.0511 45.5821 46.783 46.3608C47.5642 47.1865 48.9083 47.2134 49.7246 46.4347L71.9344 25.2481C72.9759 24.2545 72.9759 22.6434 71.9344 21.6565L49.8231 0.5639C49.4291 0.187965 48.9083 0 48.3945 0H48.3805Z" fill="#9CEBDB"/>
<path d="M59.9498 0C59.4291 0 58.9153 0.187965 58.5212 0.5639C57.7331 1.31577 57.7331 2.54427 58.5212 3.29613L79.6543 23.4556L58.5072 43.6286C57.7331 44.367 57.6205 45.5821 58.3524 46.3608C59.1335 47.1865 60.4776 47.2134 61.2939 46.4347L83.5037 25.2481C84.5452 24.2545 84.5452 22.6434 83.5037 21.6565L61.3925 0.5639C60.9984 0.187965 60.4776 0 59.9639 0H59.9498Z" fill="#9CEBDB"/>
<path d="M71.5192 0C70.9984 0 70.4847 0.187965 70.0906 0.5639C69.3024 1.31577 69.3024 2.54427 70.0906 3.29613L91.2237 23.4556L70.0765 43.6286C69.3024 44.367 69.1898 45.5821 69.9217 46.3608C70.7029 47.1865 72.047 47.2134 72.8633 46.4347L95.0731 25.2481C96.1146 24.2545 96.1146 22.6434 95.0731 21.6565L72.9618 0.5639C72.5677 0.187965 72.047 0 71.5332 0H71.5192Z" fill="#9CEBDB"/>
<path d="M83.0958 0C82.575 0 82.0613 0.187965 81.6673 0.5639C80.8791 1.31577 80.8791 2.54427 81.6673 3.29613L102.8 23.4556L81.6532 43.6286C80.8791 44.367 80.7665 45.5821 81.4984 46.3608C82.2795 47.1865 83.6236 47.2134 84.44 46.4347L106.65 25.2481C107.691 24.2545 107.691 22.6434 106.65 21.6565L84.5385 0.5639C84.1444 0.187965 83.6236 0 83.1099 0H83.0958Z" fill="#9CEBDB"/>
<path d="M94.6651 0C94.1444 0 93.6307 0.187965 93.2366 0.5639C92.4484 1.31577 92.4484 2.54427 93.2366 3.29613L114.37 23.4556L93.2225 43.6286C92.4484 44.367 92.3358 45.5821 93.0677 46.3608C93.8488 47.1865 95.193 47.2134 96.0093 46.4347L118.219 25.2481C119.261 24.2545 119.261 22.6434 118.219 21.6565L96.1078 0.5639C95.7137 0.187965 95.193 0 94.6792 0H94.6651Z" fill="#9CEBDB"/>
<g style="mix-blend-mode:multiply">
<path d="M21.6882 23.355L21.7937 23.4557L0.646591 43.6286C-0.127513 44.367 -0.240111 45.5821 0.491769 46.3609C1.27291 47.1866 2.61703 47.2134 3.43336 46.4347L25.6431 25.2481C26.192 24.7245 26.4384 24.033 26.4102 23.355H21.6882Z" fill="#E5E5E5"/>
<path d="M33.2575 23.3551L33.363 23.4558L12.2159 43.6287C11.4418 44.3672 11.3292 45.5823 12.0611 46.361C12.8422 47.1867 14.1864 47.2135 15.0027 46.4348L37.2124 25.2482C37.7614 24.7246 38.0077 24.0331 37.9795 23.3551H33.2575Z" fill="#E5E5E5"/>
<path d="M44.8339 23.3551L44.9395 23.4558L23.7923 43.6287C23.0182 44.3672 22.9056 45.5823 23.6375 46.361C24.4187 47.1867 25.7628 47.2135 26.5791 46.4348L48.7888 25.2482C49.3378 24.7246 49.5841 24.0331 49.5559 23.3551H44.8339Z" fill="#E5E5E5"/>
<path d="M56.4032 23.3551L56.5088 23.4558L35.3617 43.6287C34.5876 44.3672 34.475 45.5823 35.2069 46.361C35.988 47.1867 37.3321 47.2135 38.1484 46.4348L60.3582 25.2482C60.9071 24.7246 61.1534 24.0331 61.1253 23.3551H56.4032Z" fill="#E5E5E5"/>
<path d="M67.9723 23.3551L68.0779 23.4558L46.9308 43.6287C46.1567 44.3672 46.0441 45.5823 46.7759 46.361C47.5571 47.1867 48.9012 47.2135 49.7175 46.4348L71.9273 25.2482C72.4762 24.7246 72.7225 24.0331 72.6944 23.3551H67.9723Z" fill="#E5E5E5"/>
<path d="M79.5487 23.3551L79.6543 23.4558L58.5072 43.6287C57.7331 44.3672 57.6205 45.5823 58.3524 46.361C59.1335 47.1867 60.4776 47.2135 61.2939 46.4348L83.5037 25.2482C84.0526 24.7246 84.2989 24.0331 84.2708 23.3551H79.5487Z" fill="#E5E5E5"/>
<path d="M91.1181 23.3551L91.2237 23.4558L70.0765 43.6287C69.3024 44.3672 69.1898 45.5823 69.9217 46.361C70.7029 47.1867 72.047 47.2135 72.8633 46.4348L95.0731 25.2482C95.622 24.7246 95.8683 24.0331 95.8401 23.3551H91.1181Z" fill="#E5E5E5"/>
<path d="M102.688 23.3551L102.793 23.4558L81.6461 43.6287C80.872 44.3672 80.7594 45.5823 81.4913 46.361C82.2724 47.1867 83.6166 47.2135 84.4329 46.4348L106.643 25.2482C107.192 24.7246 107.438 24.0331 107.41 23.3551H102.688Z" fill="#E5E5E5"/>
<path d="M114.264 23.3551L114.37 23.4558L93.2225 43.6287C92.4484 44.3672 92.3358 45.5823 93.0677 46.361C93.8488 47.1867 95.193 47.2135 96.0093 46.4348L118.219 25.2482C118.768 24.7246 119.014 24.0331 118.986 23.3551H114.264Z" fill="#E5E5E5"/>
</g>
</svg>
