<svg width="680" height="596" viewBox="0 0 680 596" fill="none" xmlns="http://www.w3.org/2000/svg">
<g opacity="0.1">
<path opacity="0.1" d="M435.882 324.88L413.699 338.332L391.38 324.88L413.564 311.428L435.882 324.88Z" fill="#0071BC"/>
</g>
<g opacity="0.1">
<path opacity="0.1" d="M407.63 342.556L394.684 350.444L381.604 342.556L394.55 334.739L407.63 342.556Z" fill="#0071BC"/>
</g>
<g opacity="0.1">
<path opacity="0.1" d="M338.855 373.897L318.695 386.081L298.399 373.897L318.56 361.643L338.855 373.897Z" fill="#0071BC"/>
</g>
<g opacity="0.1">
<path opacity="0.1" d="M263.405 345.163L250.392 353.051L237.378 345.163L250.324 337.275L263.405 345.163Z" fill="#0071BC"/>
</g>
<g filter="url(#filter0_f_714_383)">
<path d="M446.931 288.554C453.978 292.801 453.983 303.019 446.94 307.273L352.356 364.689C344.885 369.225 335.514 369.239 328.029 364.727L232.726 307.273C225.67 303.011 225.659 292.782 232.705 288.505L327.244 231.121C334.714 226.586 344.084 226.572 351.568 231.082L446.931 288.554Z" fill="url(#paint0_linear_714_383)"/>
</g>
<path d="M462.448 265.975L462.381 271.679L340.204 345.84V340.135L462.448 265.975Z" fill="url(#paint1_linear_714_383)"/>
<path d="M340.204 340.135V345.84L217.218 271.679V265.975L340.204 340.135Z" fill="url(#paint2_linear_714_383)"/>
<path d="M462.448 265.974L340.204 340.135L217.218 265.974L339.395 191.814L462.448 265.974Z" fill="url(#paint3_linear_714_383)"/>
<path d="M440.804 265.974L340.136 327.035L238.862 265.974L339.53 204.914L440.804 265.974Z" fill="url(#paint4_linear_714_383)"/>
<path d="M396.37 302.949L397.584 302.245L391.515 298.583L390.302 299.287L396.37 302.949ZM410.799 294.286L412.013 293.582L405.945 289.92L404.731 290.624L410.799 294.286ZM414.373 292.103L415.587 291.399L409.518 287.737L408.305 288.441L414.373 292.103ZM400.011 300.766L401.225 300.062L395.156 296.399L393.943 297.104L400.011 300.766ZM418.014 289.92L419.228 289.216L413.159 285.553L411.946 286.258L418.014 289.92ZM403.585 298.653L404.798 297.949L398.73 294.286L397.516 294.991L403.585 298.653ZM407.158 296.47L408.372 295.765L402.304 292.103L401.09 292.808L407.158 296.47ZM432.443 281.257L433.657 280.553L427.588 276.891L426.375 277.595L432.443 281.257ZM436.017 279.074L437.23 278.37L431.162 274.708L429.948 275.412L436.017 279.074ZM421.588 287.737L422.801 287.032L416.733 283.37L415.519 284.074L421.588 287.737ZM439.658 276.891L440.871 276.187L434.803 272.524L433.589 273.229L439.658 276.891ZM428.802 283.37L430.016 282.666L423.947 279.004L422.734 279.708L428.802 283.37ZM425.229 285.553L426.442 284.849L420.374 281.187L419.16 281.891L425.229 285.553ZM356.723 326.894L357.937 326.19L351.869 322.528L350.655 323.232L356.723 326.894ZM360.297 324.711L361.511 324.007L355.442 320.345L354.228 321.049L360.297 324.711ZM446.872 272.524L448.086 271.82L442.018 268.158L440.804 268.862L446.872 272.524ZM392.796 305.132L394.01 304.428L387.942 300.766L386.728 301.47L392.796 305.132ZM363.938 322.528L365.152 321.824L359.083 318.161L357.87 318.866L363.938 322.528ZM353.082 329.078L354.296 328.373L348.228 324.711L347.014 325.416L353.082 329.078ZM349.509 331.261L350.722 330.557L344.654 326.894L343.44 327.599L349.509 331.261ZM367.511 320.345L368.725 319.64L362.657 315.978L361.443 316.682L367.511 320.345ZM385.582 309.499L386.795 308.795L380.727 305.132L379.513 305.837L385.582 309.499ZM371.153 318.161L372.366 317.457L366.298 313.795L365.084 314.499L371.153 318.161ZM381.941 311.682L383.154 310.978L377.086 307.316L375.872 308.02L381.941 311.682ZM389.155 307.316L390.369 306.611L384.301 302.949L383.087 303.653L389.155 307.316ZM374.726 316.049L375.94 315.344L369.871 311.682L368.658 312.386L374.726 316.049ZM378.367 313.865L379.581 313.161L373.512 309.499L372.299 310.203L378.367 313.865ZM443.231 274.708L444.445 274.003L438.377 270.341L437.163 271.045L443.231 274.708ZM306.221 309.428L300.152 313.091L301.366 313.795L307.434 310.133L306.221 309.428ZM302.58 307.245L296.511 310.907L297.725 311.612L303.793 307.949L302.58 307.245ZM338.653 329.007L332.585 332.67L333.798 333.374L339.867 329.712L345.935 333.374L347.149 332.67L341.08 329.007L339.934 329.712L338.653 329.007ZM299.006 305.062L292.938 308.724L294.151 309.428L300.22 305.766L299.006 305.062ZM313.435 313.795L307.367 317.457L308.581 318.161L314.649 314.499L313.435 313.795ZM291.792 300.766L285.723 304.428L286.937 305.132L293.005 301.47L291.792 300.766ZM295.365 302.949L289.297 306.611L290.51 307.316L296.579 303.653L295.365 302.949ZM324.224 320.345L318.155 324.007L319.369 324.711L325.437 321.049L324.224 320.345ZM331.438 324.641L325.37 328.303L326.584 329.007L332.652 325.345L331.438 324.641ZM335.079 326.824L329.011 330.486L330.225 331.191L336.293 327.528L335.079 326.824ZM317.009 315.978L310.941 319.64L312.154 320.345L318.223 316.682L317.009 315.978ZM327.865 322.458L321.796 326.12L323.01 326.824L329.078 323.162L327.865 322.458ZM320.65 318.161L314.582 321.824L315.795 322.528L321.864 318.866L320.65 318.161ZM288.151 298.583L282.082 302.245L283.296 302.949L289.364 299.287L288.151 298.583ZM309.794 311.612L303.726 315.274L304.94 315.978L311.008 312.316L309.794 311.612ZM259.292 281.187L253.224 284.849L254.437 285.553L260.506 281.891L259.292 281.187ZM255.718 279.004L249.65 282.666L250.864 283.37L256.932 279.708L255.718 279.004ZM284.577 296.399L278.509 300.062L279.722 300.766L285.791 297.104L284.577 296.399ZM252.145 276.82L246.076 280.483L247.29 281.187L253.358 277.525L252.145 276.82ZM237.716 268.158L231.647 271.82L232.861 272.524L238.929 268.862L237.716 268.158ZM241.289 270.271L235.221 273.933L236.434 274.637L242.503 270.975L241.289 270.271ZM244.93 272.454L238.862 276.116L240.075 276.82L246.144 273.158L244.93 272.454ZM277.362 292.033L271.294 295.695L272.508 296.399L278.576 292.737L277.362 292.033ZM273.721 289.85L267.653 293.512L268.867 294.216L274.935 290.554L273.721 289.85ZM262.933 283.37L256.865 287.032L258.078 287.737L264.147 284.074L262.933 283.37ZM280.936 294.216L274.868 297.878L276.081 298.583L282.15 294.92L280.936 294.216ZM266.507 285.553L260.438 289.216L261.652 289.92L267.72 286.258L266.507 285.553ZM270.148 287.666L264.079 291.329L265.293 292.033L271.361 288.371L270.148 287.666ZM248.504 274.637L242.435 278.299L243.649 279.004L249.717 275.341L248.504 274.637ZM237.716 263.791L238.929 263.087L232.861 259.425L231.647 260.129L237.716 263.791ZM244.93 259.495L246.144 258.791L240.075 255.129L238.862 255.833L244.93 259.495ZM320.65 213.788L321.864 213.083L315.795 209.421L314.582 210.125L320.65 213.788ZM317.009 215.971L318.223 215.267L312.154 211.604L310.941 212.309L317.009 215.971ZM241.289 261.608L242.503 260.904L236.434 257.242L235.221 257.946L241.289 261.608ZM324.224 211.604L325.437 210.9L319.369 207.238L318.155 207.942L324.224 211.604ZM248.504 257.312L249.717 256.608L243.649 252.945L242.435 253.65L248.504 257.312ZM252.145 255.129L253.358 254.424L247.29 250.762L246.076 251.466L252.145 255.129ZM309.794 220.337L311.008 219.633L304.94 215.971L303.726 216.675L309.794 220.337ZM299.006 226.817L300.22 226.113L294.151 222.45L292.938 223.155L299.006 226.817ZM255.718 252.945L256.932 252.241L250.864 248.579L249.65 249.283L255.718 252.945ZM234.074 265.975L228.006 269.637L229.22 270.341L235.288 266.679L234.074 265.975L235.288 265.27L229.22 261.608L228.006 262.312L234.074 265.975ZM295.365 229L296.579 228.296L290.51 224.634L289.297 225.338L295.365 229ZM302.58 224.704L303.793 224L297.725 220.337L296.511 221.042L302.58 224.704ZM288.151 233.367L289.364 232.662L283.296 229L282.082 229.704L288.151 233.367ZM313.435 218.154L314.649 217.45L308.581 213.788L307.367 214.492L313.435 218.154ZM291.792 231.183L293.005 230.479L286.937 226.817L285.723 227.521L291.792 231.183ZM262.933 248.579L264.147 247.875L258.078 244.212L256.865 244.917L262.933 248.579ZM266.507 246.396L267.72 245.691L261.652 242.029L260.438 242.733L266.507 246.396ZM270.148 244.212L271.361 243.508L265.293 239.846L264.079 240.55L270.148 244.212ZM331.438 207.308L332.652 206.604L326.584 202.942L325.37 203.646L331.438 207.308ZM280.936 237.733L282.15 237.029L276.081 233.367L274.868 234.071L280.936 237.733ZM273.721 242.1L274.935 241.395L268.867 237.733L267.653 238.437L273.721 242.1ZM335.079 205.125L336.293 204.421L330.225 200.759L329.011 201.463L335.079 205.125ZM327.865 209.421L329.078 208.717L323.01 205.055L321.796 205.759L327.865 209.421ZM277.362 239.916L278.576 239.212L272.508 235.55L271.294 236.254L277.362 239.916ZM259.292 250.762L260.506 250.058L254.437 246.396L253.224 247.1L259.292 250.762ZM284.577 235.55L285.791 234.846L279.722 231.183L278.509 231.888L284.577 235.55ZM306.221 222.521L307.434 221.816L301.366 218.154L300.152 218.858L306.221 222.521ZM416.733 248.579L422.801 244.917L421.588 244.212L415.519 247.875L416.733 248.579ZM445.524 265.975L444.378 266.679L450.446 270.341L451.66 269.637L445.524 265.975L451.66 262.312L450.446 261.608L444.378 265.27L445.524 265.975ZM391.515 233.367L397.584 229.704L396.37 229L390.302 232.662L391.515 233.367ZM441.95 263.791L448.019 260.129L446.805 259.425L440.737 263.087L441.95 263.791ZM438.377 261.608L444.445 257.946L443.231 257.242L437.163 260.904L438.377 261.608ZM423.947 252.945L430.016 249.283L428.802 248.579L422.734 252.241L423.947 252.945ZM427.521 255.129L433.589 251.466L432.376 250.762L426.307 254.424L427.521 255.129ZM434.736 259.495L440.804 255.833L439.59 255.129L433.522 258.791L434.736 259.495ZM420.306 250.762L426.375 247.1L425.161 246.396L419.093 250.058L420.306 250.762ZM431.162 257.312L437.23 253.65L436.017 252.945L429.948 256.608L431.162 257.312ZM413.092 246.396L419.16 242.733L417.946 242.029L411.878 245.691L413.092 246.396ZM369.871 220.337L375.94 216.675L374.726 215.971L368.658 219.633L369.871 220.337ZM373.445 222.521L379.513 218.858L378.3 218.154L372.231 221.816L373.445 222.521ZM359.016 213.788L365.084 210.125L363.87 209.421L357.802 213.083L359.016 213.788ZM362.657 215.971L368.725 212.309L367.511 211.604L361.443 215.267L362.657 215.971ZM366.23 218.154L372.299 214.492L371.085 213.788L365.017 217.45L366.23 218.154ZM387.874 231.183L393.943 227.521L392.729 226.817L386.661 230.479L387.874 231.183ZM384.301 229L390.369 225.338L389.155 224.634L383.087 228.296L384.301 229ZM380.66 226.817L386.728 223.155L385.514 222.45L379.446 226.113L380.66 226.817ZM377.086 224.704L383.154 221.042L381.941 220.337L375.872 224L377.086 224.704ZM405.877 242.1L411.946 238.437L410.732 237.733L404.663 241.395L405.877 242.1ZM355.442 211.604L361.511 207.942L360.297 207.238L354.228 210.9L355.442 211.604ZM398.663 237.733L404.731 234.071L403.517 233.367L397.449 237.029L398.663 237.733ZM409.518 244.212L415.587 240.55L414.373 239.846L408.305 243.508L409.518 244.212ZM395.089 235.55L401.157 231.888L399.944 231.183L393.875 234.846L395.089 235.55ZM402.304 239.916L408.372 236.254L407.158 235.55L401.09 239.212L402.304 239.916ZM339.799 202.167L333.731 198.505L332.517 199.209L338.586 202.871L339.799 202.167L340.945 202.942L347.014 199.28L345.8 198.575L339.799 202.167ZM351.801 209.421L357.87 205.759L356.656 205.055L350.587 208.717L351.801 209.421ZM348.228 207.308L354.296 203.646L353.082 202.942L347.014 206.604L348.228 207.308ZM344.586 205.125L350.655 201.463L349.441 200.759L343.373 204.421L344.586 205.125Z" fill="#4F6B81"/>
<path d="M395.493 259.734L395.426 274.665L340.001 308.329V293.398L395.493 259.734Z" fill="url(#paint5_linear_714_383)"/>
<path d="M340.002 293.398V308.329L284.172 274.665V259.734L340.002 293.398Z" fill="url(#paint6_linear_714_383)"/>
<path d="M285.386 259.735L339.664 226.774L394.347 259.735L340.001 292.695L285.386 259.735Z" fill="url(#paint7_linear_714_383)"/>
<path d="M305.142 259.734L339.732 238.747L374.524 259.734L339.934 280.721L305.142 259.734Z" fill="url(#paint8_radial_714_383)"/>
<path d="M307.097 258.326L308.513 257.481L303.187 254.241L301.771 255.086L307.097 258.326ZM347.553 282.694L348.969 281.849L343.643 278.609L342.227 279.524L347.553 282.694ZM353.352 279.243L354.768 278.398L349.441 275.158L348.025 276.003L353.352 279.243ZM359.151 275.721L360.567 274.876L355.24 271.637L353.824 272.482L359.151 275.721ZM312.896 254.804L314.312 253.959L308.985 250.72L307.569 251.565L312.896 254.804ZM314.784 272.27L320.111 269.031L318.695 268.186L313.368 271.425L314.784 272.27ZM332.113 282.694L337.439 279.454L336.023 278.609L330.697 281.849L332.113 282.694ZM326.314 279.243L331.641 276.003L330.225 275.158L324.898 278.398L326.314 279.243ZM308.985 268.749L314.312 265.509L312.896 264.664L307.569 267.904L308.985 268.749ZM303.187 265.298L308.513 262.058L307.097 261.213L301.771 264.453L303.187 265.298ZM320.515 275.721L325.842 272.482L324.426 271.637L319.099 274.876L320.515 275.721ZM318.627 251.353L320.043 250.508L314.717 247.269L313.301 248.114L318.627 251.353ZM370.681 268.749L372.097 267.904L366.77 264.664L365.354 265.509L370.681 268.749ZM355.24 247.832L360.567 244.592L359.151 243.747L353.824 246.987L355.24 247.832ZM366.837 254.804L372.164 251.565L370.748 250.72L365.421 253.959L366.837 254.804ZM361.039 251.353L366.365 248.114L364.949 247.269L359.623 250.508L361.039 251.353ZM349.441 244.381L354.768 241.141L353.352 240.296L348.025 243.536L349.441 244.381ZM343.643 240.86L348.969 237.62L347.553 236.775L342.227 240.015L343.643 240.86ZM376.479 265.298L377.895 264.453L372.569 261.213L371.153 262.058L376.479 265.298ZM330.225 244.381L331.641 243.536L326.314 240.296L324.898 241.141L330.225 244.381ZM324.426 247.832L325.842 246.987L320.515 243.747L319.099 244.592L324.426 247.832ZM364.882 272.27L366.298 271.425L360.971 268.186L359.555 269.031L364.882 272.27ZM336.023 240.86L337.439 240.015L332.113 236.775L330.697 237.62L336.023 240.86ZM372.569 258.326L377.895 255.086L376.479 254.241L371.153 257.481L372.569 258.326Z" fill="#6B8497"/>
<g opacity="0.31">
<path opacity="0.4" d="M217.218 78.1714V273.467L340.204 347.628L462.38 273.467V78.1714H217.218Z" fill="url(#paint9_linear_714_383)"/>
<path opacity="0.4" d="M251.538 132.33V272.974L340.136 326.358L428.061 272.974V132.33H251.538Z" fill="url(#paint10_linear_714_383)"/>
<path opacity="0.4" d="M285.049 79.2983V259.452L340.001 292.553L394.617 259.452V79.2983H285.049Z" fill="url(#paint11_linear_714_383)"/>
</g>
<g opacity="0.1">
<path opacity="0.1" d="M256.283 361.577L240.776 370.976L225.27 361.577L240.696 352.178L256.283 361.577Z" fill="#0071BC"/>
</g>
<defs>
<filter id="filter0_f_714_383" x="0.42749" y="0.709473" width="678.792" height="594.391" filterUnits="userSpaceOnUse" color-interpolation-filters="sRGB">
<feFlood flood-opacity="0" result="BackgroundImageFix"/>
<feBlend mode="normal" in="SourceGraphic" in2="BackgroundImageFix" result="shape"/>
<feGaussianBlur stdDeviation="113.5" result="effect1_foregroundBlur_714_383"/>
</filter>
<linearGradient id="paint0_linear_714_383" x1="563.366" y1="398.007" x2="558.751" y2="277.677" gradientUnits="userSpaceOnUse">
<stop offset="0.120359" stop-color="#01C3FD" stop-opacity="0"/>
<stop offset="0.22146" stop-color="#87E3FE" stop-opacity="0.285515"/>
<stop offset="0.311574" stop-color="white" stop-opacity="0.54"/>
<stop offset="0.879956" stop-color="#E7F9FF" stop-opacity="0.69"/>
</linearGradient>
<linearGradient id="paint1_linear_714_383" x1="372.355" y1="269.479" x2="431.533" y2="340.594" gradientUnits="userSpaceOnUse">
<stop stop-color="#AFDFE8"/>
<stop offset="0.711861" stop-color="#133856"/>
</linearGradient>
<linearGradient id="paint2_linear_714_383" x1="277.625" y1="254.095" x2="306.926" y2="324.261" gradientUnits="userSpaceOnUse">
<stop stop-color="#AFDFE8"/>
<stop offset="0.711861" stop-color="#133856"/>
</linearGradient>
<linearGradient id="paint3_linear_714_383" x1="337.667" y1="169.752" x2="389.368" y2="302.676" gradientUnits="userSpaceOnUse">
<stop stop-color="#AFDFE8"/>
<stop offset="0.711861" stop-color="#133856"/>
</linearGradient>
<linearGradient id="paint4_linear_714_383" x1="338.05" y1="186.749" x2="380.614" y2="296.197" gradientUnits="userSpaceOnUse">
<stop stop-color="#AFDFE8"/>
<stop offset="0.711861" stop-color="#133856"/>
</linearGradient>
<linearGradient id="paint5_linear_714_383" x1="383.454" y1="219.946" x2="425.081" y2="312.157" gradientUnits="userSpaceOnUse">
<stop stop-color="#AFDFE8"/>
<stop offset="0.711861" stop-color="#264E6F"/>
</linearGradient>
<linearGradient id="paint6_linear_714_383" x1="327.889" y1="219.946" x2="369.349" y2="312.345" gradientUnits="userSpaceOnUse">
<stop stop-color="#AFDFE8"/>
<stop offset="0.711861" stop-color="#264E6F"/>
</linearGradient>
<linearGradient id="paint7_linear_714_383" x1="338.904" y1="216.969" x2="375.26" y2="312.241" gradientUnits="userSpaceOnUse">
<stop stop-color="#AFDFE8"/>
<stop offset="0.711861" stop-color="#133856"/>
</linearGradient>
<radialGradient id="paint8_radial_714_383" cx="0" cy="0" r="1" gradientTransform="matrix(2.60736e-06 103.281 -139.532 52.2044 339.563 268.952)" gradientUnits="userSpaceOnUse">
<stop stop-color="#AFDFE8"/>
<stop offset="0.711861" stop-color="#133856"/>
</radialGradient>
<linearGradient id="paint9_linear_714_383" x1="348.92" y1="418.544" x2="361.489" y2="50.736" gradientUnits="userSpaceOnUse">
<stop stop-color="white"/>
<stop offset="0.852811" stop-color="white" stop-opacity="0"/>
</linearGradient>
<linearGradient id="paint10_linear_714_383" x1="346.366" y1="377.423" x2="355.418" y2="112.575" gradientUnits="userSpaceOnUse">
<stop stop-color="white"/>
<stop offset="0.852811" stop-color="white" stop-opacity="0"/>
</linearGradient>
<linearGradient id="paint11_linear_714_383" x1="343.909" y1="348.678" x2="361.481" y2="58.3086" gradientUnits="userSpaceOnUse">
<stop stop-color="white"/>
<stop offset="0.852811" stop-color="white" stop-opacity="0"/>
</linearGradient>
</defs>
</svg>
