<svg width="436" height="139" viewBox="0 0 436 139" fill="none" xmlns="http://www.w3.org/2000/svg">
<path d="M10.3312 72.9175C1.14164 70.9206 0.064257 63.9911 0.000880632 57.403C-0.0783399 48.8349 5.19771 42.6904 11.6463 39.1062C23.8621 32.3302 36.2205 25.1789 49.2919 20.9632C67.4492 15.126 86.2245 11.1662 104.936 7.68435C121.636 4.56093 138.573 2.41041 155.495 1.19859C172.844 -0.0302935 190.32 -0.26931 207.701 0.276861C228.568 0.942506 249.45 2.46155 270.254 4.44142C283.927 5.73857 297.521 8.19633 311.068 10.62C330.715 14.153 350.457 17.3447 369.834 22.1578C388.007 26.6637 405.515 33.8493 420.297 46.7185C432.276 57.1298 438.581 71.1937 435.001 87.4594C433.02 96.4541 427.301 102.325 420.044 105.483C406.814 111.218 393.347 116.765 379.546 120.486C348.508 128.883 316.645 131.768 284.846 134.993C238.011 139.738 191.081 139.175 144.135 138.68C112.922 138.356 81.8198 135.796 51.1139 129.651C41.7659 127.774 31.8792 126.511 23.9888 119.581C22.9431 118.659 21.5805 117.823 21.0894 116.611C20.3764 114.836 19.7109 112.549 20.2021 110.893C20.4873 109.955 23.2758 109.101 24.6701 109.443C30.3265 110.825 35.8085 113.095 41.4965 114.273C51.7477 116.406 62.0622 118.25 72.4084 119.718C85.6382 121.595 98.8839 123.319 112.177 124.428C123.474 125.367 134.85 125.589 146.179 125.691C165.841 125.879 185.519 125.93 205.182 125.64C223.529 125.367 241.893 124.957 260.209 123.899C272.615 123.182 284.957 121.202 297.331 119.871C306.489 118.881 315.71 118.42 324.805 117.004C335.278 115.382 345.577 112.02 356.065 111.184C365.429 110.433 374.603 108.88 383.349 105.807C395.406 101.574 407.369 96.6589 418.729 90.634C424.765 87.4252 429.265 76.6554 423.91 67.7972C416.526 55.5766 405.721 48.0327 393.663 43.834C373.478 36.8191 352.897 30.5552 332.077 26.3053C295.905 18.8979 259.258 14.3579 222.436 13.1461C197.878 12.3268 173.209 12.617 148.682 14.2214C116.946 16.3207 85.4323 21.3216 55.1859 32.4498C43.1602 36.8704 31.7683 43.3902 20.2655 49.364C17.3977 50.8489 14.926 53.5969 12.8029 56.2594C10.3154 59.3828 8.01799 62.8134 10.1886 67.5242C10.8224 68.9067 10.2837 70.9036 10.2837 72.9346L10.3312 72.9175Z" fill="url(#paint0_linear_679_289)"/>
<defs>
<linearGradient id="paint0_linear_679_289" x1="0" y1="69.5" x2="436" y2="69.5" gradientUnits="userSpaceOnUse">
<stop stop-color="#0CE46C"/>
<stop offset="0.966346"/>
</linearGradient>
</defs>
</svg>
