<svg width="331" height="329" viewBox="0 0 331 329" fill="none" xmlns="http://www.w3.org/2000/svg">
<path d="M10.2233 152.813L115.46 114.741L153.741 10.173C154.619 7.77752 156.217 5.70839 158.318 4.24631C160.419 2.78424 162.922 2 165.487 2C168.052 2 170.555 2.78424 172.657 4.24631C174.758 5.70839 176.356 7.77752 177.233 10.173L215.54 114.766L320.777 152.813C323.187 153.686 325.269 155.274 326.74 157.362C328.211 159.451 329 161.938 329 164.488C329 167.037 328.211 169.524 326.74 171.613C325.269 173.701 323.187 175.289 320.777 176.162L215.515 214.234L177.233 318.827C176.356 321.222 174.758 323.292 172.657 324.754C170.555 326.216 168.052 327 165.487 327C162.922 327 160.419 326.216 158.318 324.754C156.217 323.292 154.619 321.222 153.741 318.827L115.435 214.209L10.2233 176.162C7.81307 175.289 5.73121 173.701 4.26014 171.613C2.78906 169.524 2 167.037 2 164.488C2 161.938 2.78906 159.451 4.26014 157.362C5.73121 155.274 7.81307 153.686 10.2233 152.813Z" stroke="white" stroke-opacity="0.2" stroke-width="2.47243" stroke-linecap="round" stroke-linejoin="round"/>
</svg>
